# xmcd CD database file
#
# Track frame offsets:
#	150
#	21930
#	40925
#	56250
#	75330
#	90170
#	102230
#	119065
#	135850
#	157457
#	172477
#	192345
#	211987
#	232277
#	246485
#
# Disc length: 3609 seconds
#
# Revision: 0
# Processed by: cddbd v1.5.1PL0 Copyright (c) Steve Scherf et al.
# Submitted via: CDex 1.51
#
DISCID=d30e170f
DTITLE=THE COLLECTORS - PICURESQUE COLLECOR'S LAND
DYEAR=1990
DGENRE=Rock
TTITLE0=マーブル･フラワーギャング団現る！
TTITLE1=ぼくのプロペラ
TTITLE2=時計発明家
TTITLE3=地球の小さなギア
TTITLE4=・・・30・・・
TTITLE5=ちびっこアドルフ
TTITLE6=気狂いアップル
TTITLE7=彼女はワンダーガール
TTITLE8=Dear トリケラトプス
TTITLE9=消えろ！けむり野郎
TTITLE10=ダイスをころがして
TTITLE11=チョークでしるされた手紙
TTITLE12=あの娘はぼくの太陽なのさ
TTITLE13=S・P・Y
TTITLE14=ロケットマン
EXTD=YEAR: 1990.04/21
EXTT0=
EXTT1=
EXTT2=
EXTT3=
EXTT4=
EXTT5=
EXTT6=
EXTT7=
EXTT8=
EXTT9=
EXTT10=
EXTT11=
EXTT12=
EXTT13=
EXTT14=
PLAYORDER=
